:SAMPLES-PER-SECOND 30
:FRAME-RANGE 1-1086
:FULLY-SPECIFIED
:DEGREES
136
root  -7.76951 38.9313 -140.431 -170.625 -49.2665 -173.648
RightUpLeg  -7.44222 -8.17252 -3.84816
RightLeg  10.0902 -21.6139 -0.867838
RightFoot  -8.324 -0.355163 11.2947
RightToes  1.21801e-010 1.2921e-014 -6.02303e-014
Spine  1.16828 -0.16844 6.6041
Spine1  8.19558 0.823687 -4.38344
HEad  -7.04911 53.0626 -21.9874
LeftShoulder1  0.977871 -0.926964 -16.6375
LeftArm  6.18554 -4.65484 -55.6056
LeftForeArm  1.72778 -50.5676 -13.565
LeftHand  0.0398479 0.795477 -1.1304
RightShoulder  1.87369 3.97408 19.3514
RightArm  3.17597 -7.16231 31.3035
RightForeArm  14.9313 66.2997 25.3994
RightHand  0.0285138 -6.22721 -7.53429
LeftUpLeg  -32.5695 10.9856 7.27504
LeftLeg  10.5556 32.6575 5.62029
LeftFoot  4.52022 0.439513 -3.35217
LeftToes  3.79492e-011 -8.60219e-011 1.56273e-011
137
root  -8.71272 38.7616 -140.213 -172.07 -51.3999 -173.272
RightUpLeg  -4.8237 -9.27869 -4.93394
RightLeg  10.1608 -22.1983 -1.2955
RightFoot  -8.35773 -0.406984 13.3789
RightToes  1.21801e-010 1.2921e-014 -6.02303e-014
Spine  2.24054 -0.757921 6.76712
Spine1  7.47233 0.547076 -5.427
HEad  -6.91063 53.4799 -20.9179
LeftShoulder1  0.993166 -1.06887 -16.2027
LeftArm  5.46617 -3.61971 -55.7922
LeftForeArm  2.45906 -50.9759 -13.7167
LeftHand  0.0402839 0.80984 -1.14723
RightShoulder  1.85654 3.66517 20.3092
RightArm  3.91942 -5.64975 30.7565
RightForeArm  12.8143 64.8586 23.7334
RightHand  0.0154375 -6.03492 -7.32266
LeftUpLeg  -33.7982 13.8099 4.34699
LeftLeg  14.877 25.389 6.38789
LeftFoot  3.21491 0.404674 -3.32149
LeftToes  3.79492e-011 -8.60219e-011 1.56273e-011
138
root  -9.70734 38.6387 -140.034 -172.809 -53.0537 -173.129
RightUpLeg  -3.53186 -10.4837 -5.98842
RightLeg  11.7855 -21.9803 -2.70817
RightFoot  -7.77364 -0.564421 16.312
RightToes  1.21801e-010 1.2921e-014 -6.02303e-014
Spine  2.25883 -0.585117 6.66741
Spine1  7.3528 0.791346 -5.78394
HEad  -7.45053 53.5069 -21.0123
LeftShoulder1  1.08159 -1.47512 -16.1176
LeftArm  5.56898 -3.76213 -55.8826
LeftForeArm  1.95893 -50.2637 -13.3953
LeftHand  0.030765 0.875618 -0.925679
RightShoulder  1.78315 3.30004 20.6882
RightArm  3.18938 -5.80966 31.3303
RightForeArm  12.5381 63.9198 22.6282
RightHand  0.0125998 -6.07286 -6.5944
LeftUpLeg  -34.867 16.0856 1.31702
LeftLeg  18.2961 20.5706 7.4355
LeftFoot  1.81349 0.173079 -1.59665
LeftToes  3.79492e-011 -8.60219e-011 1.56273e-011
139
root  -10.7665 38.5882 -139.76 -173.015 -54.5176 -173.505
RightUpLeg  -2.97728 -14.115 -7.83722
RightLeg  14.4632 -18.386 -4.12973
RightFoot  -6.50924 -0.878173 19.5762
RightToes  1.21801e-010 1.2921e-014 -6.02303e-014
Spine  1.97018 -0.401571 6.96576
Spine1  7.46833 1.32016 -7.09869
HEad  -6.52339 53.5217 -20.5919
LeftShoulder1  1.074 -1.37274 -16.4801
LeftArm  5.99194 -3.73557 -56.148
LeftForeArm  1.8384 -49.9635 -13.2564
LeftHand  0.0122268 1.16469 -0.517589
RightShoulder  1.77413 3.20772 20.9479
RightArm  2.38836 -6.47154 31.7759
RightForeArm  12.3761 62.956 21.5721
RightHand  -0.0122429 -5.58024 -6.96452
LeftUpLeg  -34.434 15.1818 -0.400804
LeftLeg  19.778 18.9201 7.63601
LeftFoot  1.609 -0.262625 2.22813
LeftToes  3.79492e-011 -8.60219e-011 1.56273e-011
140
root  -11.8506 38.5939 -139.472 -171.937 -55.1687 -174.981
RightUpLeg  -4.21424 -16.0266 -10.3755
RightLeg  19.2632 -15.1946 -6.01364
RightFoot  -4.45433 -1.39442 22.3955
RightToes  1.21801e-010 1.2921e-014 -6.02303e-014
Spine  1.14198 0.0863987 6.23613
Spine1  7.64151 2.011 -7.9995
HEad  -5.39156 53.7028 -19.8412
LeftShoulder1  1.08279 -1.405 -16.5122
LeftArm  6.1465 -3.03698 -55.9861
LeftForeArm  2.05601 -50.2629 -13.3876
LeftHand  0.0158625 1.53171 -0.740775
RightShoulder  1.7591 3.16601 20.8857
RightArm  2.32359 -6.47982 32.4264
RightForeArm  11.7678 61.1966 19.8856
RightHand  -0.0375452 -5.09416 -5.91332
LeftUpLeg  -33.4979 13.8704 -2.297
LeftLeg  20.7199 19.1834 8.08184
LeftFoot  0.0727059 -0.381746 3.81432
LeftToes  3.79492e-011 -8.60219e-011 1.56273e-011
